<?xml version="1.0" standalone="no"?>
<!DOCTYPE svg PUBLIC "-//W3C//DTD SVG 20010904//EN"
 "http://www.w3.org/TR/2001/REC-SVG-20010904/DTD/svg10.dtd">
<svg version="1.0" xmlns="http://www.w3.org/2000/svg"
 width="1366.000000pt" height="768.000000pt" viewBox="0 0 1366.000000 768.000000"
 preserveAspectRatio="xMidYMid meet">

<g transform="translate(0.000000,768.000000) scale(0.100000,-0.100000)"
fill="#000000" stroke="none">
<path d="M3182 3833 l3 -3658 2 3652 3 3653 3653 3 3652 2 -3657 3 -3658 2 2
-3657z"/>
<path d="M6450 7179 c-113 -15 -211 -28 -217 -28 -23 -2 -13 -29 12 -35 14 -4
29 -17 34 -29 5 -12 23 -141 41 -286 l33 -265 -26 -21 c-52 -46 -24 -48 229
-15 131 17 239 32 240 33 4 6 -12 167 -18 172 -4 4 -18 5 -32 1 -20 -5 -28
-16 -37 -50 -16 -64 -44 -85 -125 -97 -37 -5 -71 -6 -75 -2 -7 8 -40 256 -34
261 7 8 77 14 98 8 13 -3 29 -17 35 -31 8 -18 19 -25 38 -25 l27 0 -7 68 c-12
119 -16 132 -41 132 -16 0 -26 -10 -37 -38 -12 -31 -22 -40 -48 -45 -78 -16
-75 -19 -92 111 -8 64 -14 118 -13 120 7 8 140 23 161 18 13 -4 36 -24 50 -46
26 -40 46 -48 73 -31 10 7 12 25 6 80 l-7 71 -32 -1 c-17 -1 -123 -14 -236
-30z"/>
<path d="M6990 7196 c0 -8 9 -20 20 -26 28 -15 26 -57 -11 -340 -30 -235 -40
-270 -76 -270 -10 0 -20 -28 -10 -31 18 -4 209 -28 230 -29 17 0 27 5 27 15 0
8 -4 15 -10 15 -5 0 -16 10 -25 23 -13 20 -13 37 -5 108 17 135 16 132 52 125
18 -3 40 -13 49 -22 10 -9 36 -74 59 -144 23 -71 47 -133 53 -138 10 -8 153
-32 189 -32 16 0 8 25 -12 38 -19 11 -60 81 -60 101 0 30 -47 129 -77 161
l-34 38 54 25 c63 29 94 67 106 132 16 84 -12 151 -77 184 -53 27 -100 38
-242 56 -69 8 -142 18 -162 21 -30 5 -38 3 -38 -10z m269 -77 c71 -15 101 -52
101 -125 0 -111 -38 -154 -137 -154 -74 0 -71 -10 -48 160 8 58 15 111 15 118
0 15 6 15 69 1z"/>
<path d="M5710 7008 c-146 -50 -266 -92 -267 -93 -3 -1 47 -157 52 -163 1 -1
16 3 33 9 29 10 31 14 30 53 0 24 5 53 12 65 10 20 64 51 89 51 11 0 181 -504
181 -537 0 -12 -10 -29 -22 -37 -16 -12 -19 -19 -11 -27 8 -8 44 0 137 31 124
42 150 61 93 68 -15 2 -34 14 -43 26 -8 13 -53 137 -99 275 l-84 252 27 10
c56 21 84 15 123 -30 33 -37 40 -40 63 -31 14 5 26 13 26 18 0 27 -49 147 -61
149 -8 1 -133 -39 -279 -89z"/>
<path d="M7835 7050 c-4 -6 0 -19 9 -29 9 -10 16 -25 16 -34 0 -26 -189 -499
-207 -519 -8 -9 -24 -18 -36 -20 -48 -7 -22 -28 89 -72 65 -25 121 -46 126
-46 13 0 9 27 -7 40 -8 7 -15 22 -15 33 0 23 69 207 77 207 3 0 37 -11 75 -25
121 -44 214 -31 275 38 40 45 57 97 51 157 -9 89 -64 132 -278 215 -80 31
-150 59 -156 62 -7 2 -15 -1 -19 -7z m241 -141 c74 -35 92 -94 53 -179 -41
-91 -85 -113 -169 -85 -28 9 -50 20 -50 25 0 8 88 238 97 253 7 11 20 9 69
-14z"/>
<path d="M5115 6739 c-82 -58 -93 -79 -41 -79 31 0 40 -6 74 -52 164 -222 212
-289 212 -293 0 -3 -39 15 -87 39 -49 24 -163 78 -255 120 l-167 76 -81 -57
c-81 -57 -94 -77 -49 -79 13 0 29 -1 36 -2 13 -2 307 -408 326 -450 8 -17 8
-29 -1 -43 -14 -22 -7 -43 13 -35 29 11 144 100 139 108 -3 4 -21 8 -39 8 -38
0 -26 -14 -208 238 -53 72 -95 132 -93 132 2 0 125 -56 273 -124 l270 -123 51
37 51 36 -175 245 c-96 134 -177 254 -180 267 -4 12 -1 29 6 37 7 8 8 20 3 29
-6 11 -21 5 -78 -35z"/>
<path d="M8565 6721 c-3 -5 0 -21 6 -35 14 -30 26 -10 -168 -283 -79 -112
-149 -204 -156 -205 -7 -1 -23 -2 -36 -2 -13 -1 -26 -6 -28 -12 -4 -11 189
-154 208 -154 11 0 11 17 0 45 -10 25 5 56 71 147 54 74 68 77 105 22 15 -24
15 -33 -5 -144 -34 -182 -35 -175 54 -239 51 -36 79 -50 86 -43 7 7 6 17 -2
33 -9 16 -10 44 -5 98 11 102 11 190 2 222 l-8 26 55 -5 c71 -6 133 22 172 80
24 34 29 52 29 99 0 84 -32 122 -211 251 -82 59 -152 108 -156 108 -4 0 -9 -4
-13 -9z m230 -223 c22 -26 26 -39 22 -71 -6 -45 -46 -109 -84 -134 -14 -10
-43 -17 -63 -17 -42 1 -124 50 -116 70 2 6 39 60 81 118 l77 106 28 -20 c16
-11 40 -35 55 -52z"/>
<path d="M4324 6071 c-114 -131 -159 -190 -152 -198 7 -9 16 -9 34 -1 31 14
40 8 279 -200 186 -163 187 -164 180 -198 -4 -26 -2 -34 9 -34 8 0 85 82 171
181 l157 182 -63 63 -63 64 -24 -24 c-23 -22 -23 -25 -8 -49 25 -37 36 -85 27
-111 -5 -12 -29 -44 -54 -71 l-44 -49 -102 88 c-110 95 -107 87 -57 144 21 23
55 28 86 12 14 -8 21 -5 33 13 15 23 13 25 -36 68 -99 86 -95 84 -117 64 -17
-16 -18 -20 -5 -38 23 -32 18 -58 -18 -100 l-32 -39 -93 82 -93 82 44 51 c58
69 84 81 138 67 37 -10 44 -9 62 9 24 23 20 30 -52 90 l-46 38 -161 -186z"/>
<path d="M9202 6218 c-8 -8 -8 -17 -1 -30 15 -29 3 -44 -210 -247 -186 -178
-193 -183 -226 -177 -21 4 -36 2 -40 -5 -9 -13 164 -191 180 -186 5 2 8 19 7
39 -3 33 4 42 120 155 260 253 274 265 316 261 22 -2 37 1 37 8 0 6 -39 52
-86 102 -63 67 -89 88 -97 80z"/>
<path d="M9437 5776 c-103 -38 -131 -94 -128 -259 2 -133 -10 -171 -58 -200
-45 -26 -85 -22 -120 13 -55 56 -59 124 -9 177 19 20 19 22 3 47 -10 14 -20
26 -23 26 -14 0 -122 -76 -122 -87 0 -6 21 -53 46 -103 50 -96 108 -164 161
-186 71 -30 167 -9 220 48 43 46 53 89 53 225 0 141 6 160 61 188 38 20 72 11
109 -31 37 -42 41 -98 10 -137 -23 -30 -25 -45 -5 -71 15 -20 13 -20 128 55
13 9 -51 141 -97 201 -64 83 -155 121 -229 94z"/>
<path d="M5334 5487 c125 -67 209 -188 227 -324 4 -38 13 -131 18 -208 11
-155 34 -249 87 -364 77 -168 258 -397 425 -537 170 -144 339 -240 694 -394
257 -111 485 -229 570 -293 180 -137 241 -313 185 -533 -32 -125 -73 -199
-159 -284 -86 -85 -158 -128 -276 -162 -107 -31 -337 -33 -460 -5 -343 80
-627 304 -703 557 -24 81 -37 183 -25 205 8 13 12 7 22 -27 20 -69 110 -233
147 -269 l34 -33 0 500 0 500 -87 51 c-147 87 -321 253 -410 390 -18 29 -33
58 -34 65 0 7 -5 2 -10 -12 -7 -16 -9 -316 -8 -845 3 -892 1 -954 -48 -1055
-36 -75 -140 -176 -228 -223 l-70 -36 674 -1 c420 0 671 4 665 9 -5 6 -121 64
-259 130 -163 79 -261 121 -282 121 -43 0 -67 -25 -107 -109 l-31 -66 -3 75
c-4 94 11 148 55 200 57 66 99 57 332 -70 274 -149 416 -193 626 -193 265 1
482 82 662 247 275 254 345 561 190 836 -37 66 -184 215 -282 286 -119 86
-389 236 -620 343 -476 223 -676 341 -814 481 -207 210 -261 450 -151 675 70
144 165 237 335 329 38 21 80 47 94 57 23 19 16 19 -505 19 l-529 -1 59 -32z"/>
<path d="M3850 5385 c-62 -90 -84 -153 -84 -240 -1 -68 2 -85 22 -113 32 -45
90 -72 152 -72 57 0 106 22 185 81 95 71 145 81 207 37 51 -36 45 -124 -13
-173 -24 -19 -42 -25 -80 -25 -44 0 -51 -3 -60 -26 -5 -15 -7 -29 -4 -32 3 -3
33 -18 67 -33 l62 -27 24 31 c13 18 42 69 65 115 75 152 60 261 -47 323 -44
26 -59 30 -111 27 -64 -4 -85 -14 -211 -103 -45 -32 -65 -40 -99 -40 -81 0
-119 70 -80 145 21 41 53 60 102 60 41 0 63 17 63 49 0 9 -102 61 -121 61 -4
0 -22 -20 -39 -45z"/>
<path d="M9873 5283 c-7 -3 -13 -15 -13 -29 0 -13 -10 -30 -22 -38 -40 -26
-478 -196 -505 -196 -15 0 -34 7 -42 14 -9 8 -21 12 -28 8 -7 -5 17 -79 76
-230 48 -122 90 -225 94 -228 8 -9 167 46 167 57 0 29 -22 49 -56 49 -69 0
-102 23 -134 96 -17 36 -30 69 -30 73 0 7 236 102 252 101 10 0 38 -92 31
-104 -3 -6 -14 -20 -24 -31 -18 -20 -17 -65 2 -65 12 0 163 60 171 68 4 4 5
17 2 29 -5 16 -15 23 -42 25 -38 3 -66 32 -77 79 -6 25 -3 28 100 68 59 22
111 41 115 41 13 0 53 -111 53 -147 1 -24 -8 -42 -30 -65 -27 -29 -29 -36 -20
-58 6 -14 12 -27 13 -29 4 -5 144 51 144 58 0 9 -173 445 -179 452 -3 4 -12 4
-18 2z"/>
<path d="M3705 4712 c-56 -27 -119 -99 -144 -166 -12 -31 -34 -128 -50 -214
-31 -167 -28 -193 16 -146 18 19 30 24 51 20 15 -3 131 -24 257 -46 127 -22
242 -45 258 -51 15 -7 30 -22 33 -35 14 -54 32 -23 54 94 50 264 38 365 -54
458 -71 71 -139 95 -276 101 -88 3 -112 1 -145 -15z m269 -162 c34 -11 81 -33
104 -50 59 -43 75 -79 70 -161 -2 -37 -6 -70 -8 -73 -7 -6 -552 92 -561 102
-10 11 16 100 38 130 23 31 71 61 116 73 47 12 168 1 241 -21z"/>
<path d="M9917 4546 c-69 -25 -107 -77 -147 -200 -29 -89 -70 -135 -126 -143
-117 -15 -158 164 -52 221 29 16 34 23 30 48 l-5 30 -59 -6 c-70 -8 -85 -13
-92 -31 -2 -7 0 -60 5 -117 17 -189 85 -278 210 -278 115 1 170 52 225 212 16
44 41 94 56 110 24 26 33 29 75 26 41 -3 50 -7 70 -37 13 -19 23 -47 23 -63 0
-30 -25 -88 -38 -88 -4 0 -17 -8 -30 -18 -19 -15 -22 -24 -16 -46 6 -27 8 -28
53 -21 96 14 91 9 91 86 0 85 -16 160 -45 219 -27 54 -48 74 -98 95 -44 18
-80 19 -130 1z"/>
<path d="M8932 2037 l-32 -33 65 -64 65 -65 -32 -8 c-100 -26 -146 -132 -99
-226 23 -45 91 -108 137 -127 100 -42 214 24 214 125 0 34 0 34 21 15 21 -19
21 -19 50 16 16 19 28 38 27 41 -5 12 -370 359 -377 359 -4 0 -21 -15 -39 -33z
m190 -249 c99 -69 93 -188 -10 -188 -49 0 -132 81 -132 129 0 84 67 111 142
59z"/>
<path d="M4621 1979 c-13 -5 -46 -25 -72 -45 -101 -74 -151 -183 -129 -281 14
-65 72 -141 134 -178 36 -21 45 -32 50 -63 11 -60 27 -94 43 -87 8 3 26 8 40
11 19 5 23 11 19 28 -21 70 -20 74 15 81 54 11 112 50 168 110 110 121 103
258 -18 368 -22 20 -57 43 -77 52 -40 17 -136 19 -173 4z m158 -104 c87 -44
106 -135 49 -221 -34 -50 -96 -99 -135 -107 -20 -4 -24 3 -38 49 -17 57 -19
59 -59 44 -23 -8 -24 -12 -14 -40 14 -42 7 -45 -26 -11 -73 77 -37 197 83 272
50 32 97 37 140 14z"/>
<path d="M8710 1621 c-44 -23 -80 -75 -80 -114 l0 -30 -22 20 -23 21 -34 -28
c-25 -21 -31 -33 -24 -42 5 -7 58 -74 118 -148 60 -74 110 -137 111 -138 4 -6
74 52 74 62 0 4 -31 47 -69 95 -104 131 -107 142 -63 192 44 49 67 37 169 -86
92 -111 89 -110 142 -65 16 14 20 24 14 33 -5 6 -47 58 -93 115 -110 135 -145
153 -220 113z"/>
<path d="M4932 1548 c-71 -96 -130 -186 -137 -208 -26 -83 74 -176 170 -157
25 4 25 3 10 -19 -14 -22 -13 -24 19 -49 18 -14 36 -25 39 -25 8 0 217 297
217 308 0 5 -17 21 -37 35 l-37 26 -50 -72 c-28 -40 -70 -92 -93 -116 -37 -37
-47 -42 -70 -36 -16 3 -36 14 -45 22 -33 30 -21 65 59 178 l77 108 -34 29
c-19 15 -38 28 -42 28 -4 0 -25 -24 -46 -52z"/>
<path d="M8360 1365 c-61 -31 -100 -74 -107 -118 -9 -59 -1 -69 44 -53 27 9
39 20 45 42 9 35 44 63 79 64 24 0 57 -24 48 -35 -2 -2 -37 -38 -76 -78 -81
-82 -91 -113 -54 -173 50 -82 176 -61 227 37 12 25 17 27 33 17 14 -9 26 -6
59 12 l41 23 -27 27 c-15 15 -49 67 -76 116 -68 124 -88 144 -145 144 -28 -1
-64 -10 -91 -25z m165 -200 c11 -24 12 -41 6 -59 -11 -26 -47 -56 -70 -56 -19
0 -51 29 -51 47 0 15 78 103 92 103 5 0 16 -16 23 -35z"/>
<path d="M5280 1313 c-14 -9 -27 -18 -29 -20 -6 -4 31 -43 51 -54 12 -6 24 -5
38 3 30 19 94 -16 98 -55 5 -38 -14 -42 -100 -18 -94 26 -119 26 -153 -1 -83
-65 -57 -173 51 -208 20 -7 49 -10 65 -8 24 4 29 1 29 -17 0 -15 12 -27 38
-40 20 -11 40 -21 43 -23 4 -1 9 13 12 33 3 19 28 74 55 123 68 120 77 153 58
191 -44 84 -191 138 -256 94z m104 -252 c-23 -37 -44 -51 -74 -51 -39 0 -70
26 -70 61 0 41 28 50 102 31 l59 -15 -17 -26z"/>
<path d="M5603 1080 l-111 -241 44 -21 c24 -12 45 -20 48 -17 6 6 204 436 211
459 5 15 -3 24 -34 40 -22 11 -42 20 -44 20 -2 0 -53 -108 -114 -240z"/>
<path d="M5837 1233 c-3 -15 -8 -35 -12 -44 -5 -13 4 -20 39 -32 51 -17 55
-15 70 46 5 23 3 29 -19 37 -63 24 -72 23 -78 -7z"/>
<path d="M8144 1246 c-23 -10 -35 -25 -44 -52 -11 -33 -14 -35 -23 -18 -5 10
-11 20 -12 22 -1 1 -20 -6 -43 -16 l-40 -18 75 -165 c41 -90 79 -168 83 -173
9 -9 90 21 90 33 0 4 -20 51 -45 106 -46 101 -56 163 -32 183 6 6 24 13 40 17
28 7 33 26 21 73 -7 25 -25 27 -70 8z"/>
<path d="M7610 1185 c-69 -25 -130 -47 -137 -49 -7 -3 20 -91 78 -252 49 -136
91 -249 93 -251 5 -5 274 95 309 116 35 19 67 78 67 121 0 71 -58 140 -117
140 -27 0 -27 -1 -7 39 23 47 13 106 -25 144 -49 49 -107 47 -261 -8z m178
-61 c26 -18 30 -65 7 -87 -15 -15 -154 -72 -159 -66 -8 10 -36 91 -36 103 0 9
29 24 73 39 88 31 87 31 115 11z m101 -210 c26 -33 27 -66 2 -88 -14 -13 -160
-76 -176 -76 -6 0 -47 131 -43 136 11 10 145 53 170 53 17 1 34 -8 47 -25z"/>
<path d="M6054 1148 c-36 -9 -43 -15 -53 -48 -9 -31 -15 -37 -34 -33 -19 4
-25 -1 -34 -32 -11 -33 -10 -37 11 -45 l23 -8 -35 -121 c-37 -132 -37 -161 3
-187 31 -20 106 -38 116 -27 4 4 10 22 13 39 6 29 5 32 -24 37 -37 8 -37 15
-3 135 l26 94 30 -6 c16 -3 35 -2 42 4 18 15 82 -332 66 -366 -15 -35 -52 -49
-90 -36 l-31 11 0 -44 0 -44 45 -7 c60 -9 107 1 133 29 23 24 262 433 262 448
0 5 -8 9 -19 9 -10 0 -32 3 -49 6 -30 6 -31 5 -93 -115 -35 -66 -67 -121 -70
-121 -3 0 -14 55 -24 123 -10 67 -21 129 -25 137 -5 9 -35 21 -67 29 -87 19
-87 19 -69 81 24 79 26 76 -50 58z"/>
<path d="M5744 948 c-31 -95 -59 -178 -61 -184 -4 -11 83 -41 93 -32 2 3 31
85 64 182 40 121 55 178 47 181 -7 2 -27 8 -46 14 -19 6 -35 11 -37 11 -1 0
-28 -78 -60 -172z"/>
<path d="M7193 1100 c-44 -26 -57 -54 -49 -107 6 -42 5 -44 -25 -50 -21 -4
-28 -10 -25 -20 4 -8 6 -26 6 -40 0 -22 3 -24 30 -18 17 4 30 3 30 -2 0 -4 9
-71 20 -148 11 -77 20 -141 20 -144 0 -5 90 5 96 11 2 3 -5 70 -16 149 -21
153 -20 159 28 159 19 0 22 5 22 41 l0 42 -39 -6 c-36 -4 -39 -3 -44 21 -8 39
2 52 44 58 36 6 39 9 39 40 l0 34 -52 0 c-35 0 -64 -7 -85 -20z"/>
<path d="M6815 922 c-71 -34 -105 -94 -105 -187 0 -118 77 -195 197 -195 68 0
129 33 164 88 37 58 41 150 9 212 -44 86 -172 126 -265 82z m129 -73 c31 -14
56 -65 56 -114 0 -114 -128 -158 -175 -60 -49 105 26 216 119 174z"/>
</g>
</svg>
